<?xml version="1.0" encoding="utf-8"?>
<!-- Generator: Adobe Illustrator 21.0.2, SVG Export Plug-In . SVG Version: 6.00 Build 0)  -->
<svg version="1.1" id="Layer_1" xmlns="http://www.w3.org/2000/svg" xmlns:xlink="http://www.w3.org/1999/xlink" x="0px" y="0px"
	 viewBox="0 0 142.8 80.2" style="enable-background:new 0 0 142.8 80.2;" xml:space="preserve">
<style type="text/css">
	.st0{fill:#0073AB;}
</style>
<title>brand</title>
<g id="Layer_2">
	<g id="Layer_1-2">
		<path class="st0" d="M49.6,39.6c0.1-1.5-0.4-3-1.3-4.2c-0.6-1-1.7-1.6-2.8-1.6c-0.5,0-1,0.2-1.4,0.6c-0.5,0.6-0.9,1.3-1.2,2
			c-0.8,1.3-1.4,2.8-1.8,4.3c0,0.6,0.1,1.2,0.5,1.7c0.4,0.5,1.1,0.7,1.7,0.7c0.3,0,0.6-0.1,0.9-0.1c0.3-0.1,0.7-0.1,1-0.1
			c0.1,0,0.4,0.2,0.7,0.5c0.3,0.2,0.4,0.6,0.5,0.9c0,0.8-1.1,1.7-3.2,2.9c-3.2,1.6-6.6,2.9-10.2,3.7c-2.6,0.6-5.3,1-8,1.3
			c-2.5,0.2-5.5,0.4-9,0.4c-2,0-4-0.1-6-0.3c-1.3-0.1-2.7-0.4-4-0.7c-0.9-0.2-1.7-0.5-2.4-0.9c-0.5-0.3-0.9-0.7-1.1-1.1
			c-0.3-0.7-0.4-1.4-0.4-2.2c0-1-0.2-1.5-0.4-1.5c-0.2,0-0.5,0.4-0.7,1.2c-0.2,1-0.4,2-0.6,3.1c-0.2,1.3-0.3,2.6-0.4,3.7
			c-0.3,1.9,0.7,3.9,2.4,4.8c1.3,0.7,2.6,1.1,4.1,1.2c2,0.2,3.9,0.3,5.9,0.3c4,0,7.9-0.4,11.8-1c3.7-0.5,7.3-1.5,10.8-2.8
			c2.9-1.1,5.6-2.5,8-4.3c1.4-1.1,2.7-2.4,3.7-3.8c0.9-1.2,1.6-2.6,2.1-4C49.4,42.7,49.6,41.1,49.6,39.6z"/>
		<path class="st0" d="M22.7,27.2c0.4,0.3,1,0.7,1.9,1.3s1.3,0.9,1.5,0.9c0.4,0,1-0.7,1.8-2.1c0.7-1,1.1-2.1,1.2-3.3
			c-0.3-0.9-0.8-1.7-1.6-2.3c-0.9-1-1.7-1.4-2.2-1.1c-0.3,0-0.8,0.9-1.7,2.6c-0.6,1-1.1,2.2-1.3,3.4C22.2,26.7,22.3,27,22.7,27.2z"
			/>
		<path class="st0" d="M85.3,40.2c-1,0.2-1.9,0.6-2.7,1.3c-0.9,0.8-1.7,1.7-2.4,2.7c-0.7,1-1.3,2.1-2,3.2c-0.4,0.7-0.8,1.4-1.3,2
			c-0.5,0-0.9-0.1-1.4-0.3c-0.5-0.1-1-0.3-1.5-0.5c-0.6-0.2-1.2,0.1-1.6,0.6c-0.5,0.7-1,1.3-1.4,2.1c-0.4,0.7-0.9,1.3-1.6,1.6
			c-0.7,0.3-1.5,0.5-2.3,0.5c-1.5,0-2.9-0.8-3.7-2.1c-0.6-0.9-0.9-2-1-3.1c0.1-0.7,0.3-1.3,0.5-2c0.1-0.2,0.2-0.7,0.5-1.5
			c0.1-0.4,0-0.6-0.2-0.7c-0.3,0-0.5,0.2-0.8,0.6c-0.4,0.6-0.7,1.1-1,1.8l-1.5,3.1c-0.5,0.9-0.9,1.6-1.2,1.9
			c-0.5,0.8-1.1,1.6-1.7,2.3c-1.2,1.4-2.6,2.5-4.1,3.5l-2.2,1.3L48.6,60c-0.8,0.5-1.2,0.9-1.2,1.2c0.6,0.1,1.2,0.1,1.7-0.1l2.3-0.6
			l1.7-0.4c0.5-0.1,1.1-0.3,1.6-0.5c1.1-0.4,2-1.1,2.7-2.1c0.9-1.2,1.5-2.2,2-3c0.1,1.2,0.5,2.3,1.1,3.3c0.9,1.3,2.3,2,3.8,2
			c1,0,2.1-0.3,2.9-0.8c0.9-0.6,1.7-1.5,2.3-2.4c0.7-1.1,1.2-1.9,1.6-2.5c0.4-0.6,0.7-0.8,0.9-0.8c1.4,0.9,3,1.4,4.6,1.3
			c3,0,5.7-1.5,8.1-4.5c2.1-2.7,3.2-5.2,3.2-7.7C88,41,87,40.1,85.3,40.2z M85,46.3c-0.6,0.6-1.3,1.2-2,1.7
			c-0.8,0.5-1.6,0.9-2.5,1.1c-0.7,0.2-1.3,0.2-2,0.2l1.1-1.8c0.3-0.6,0.8-1.3,1.5-2.2c0.5-0.8,1.3-1.4,2.3-1.5
			c0.5,0,1.1,0.1,1.5,0.4c0.4,0.1,0.7,0.5,0.8,0.9C85.7,45.4,85.5,45.8,85,46.3z"/>
		<path class="st0" d="M97.8,58.8c1.1-1.1,1.9-2.3,2.6-3.7c0.6-1.1,1-2.2,1.3-3.4c0.3-1.1,0.5-2.2,0.5-3.4c0.1-1-0.1-2.1-0.5-3.1
			c-0.4-0.8-1-1.4-1.6-2c-0.3-0.2-0.7-0.5-1.2-0.8c-0.3-0.2-0.7-0.4-1.1-0.5c-0.3,0-0.6,0.3-0.8,0.9l-2.5,5.7
			c-0.3,0.4-0.4,0.9-0.5,1.5h0.2l0.6,0.2l-1.1,1.9c-0.5,0.8-0.8,1.6-1.1,2.4c-0.2,0.8-0.3,1.5-0.3,2.3c0,2.1,0.9,3.2,2.6,3.2
			C96,60,97,59.6,97.8,58.8z M94.2,54.3c0.1-0.8,0.4-1.5,0.8-2.1c0.5-0.8,0.9-1.2,1.1-1.2c0.4,0.1,0.7,0.2,1.1,0.5
			c0.4,0.2,0.7,0.5,1,0.8c0.5,0.4,0.7,1,0.7,1.7c-0.1,0.6-0.4,1.1-1,1.4c-0.5,0.4-1.2,0.6-1.8,0.6C94.8,55.9,94.2,55.3,94.2,54.3z"
			/>
		<path class="st0" d="M121.3,71.3c-0.3,0-0.8,0.9-1.7,2.6c-0.6,1-1.1,2.2-1.3,3.4c0,0.3,0.2,0.5,0.5,0.7c0.4,0.2,1,0.7,1.8,1.3
			c0.8,0.6,1.3,0.9,1.5,0.9c0.4,0,1-0.7,1.8-2.1c0.7-1,1.1-2.1,1.2-3.2c-0.3-0.9-0.8-1.7-1.6-2.3C122.6,71.5,121.8,71.1,121.3,71.3z
			"/>
		<path class="st0" d="M129,39.8c-0.8,0-1.5,0.1-2.3,0.3L123,41l-2.2,0.6l0.6-0.8c0.6-0.7,1.3-1.3,2-1.8c0.9-0.6,1.9-1.1,3-1.4
			c1.1-0.3,2.3-0.4,3.5-0.3c0.8,0,1.6,0.2,2.4,0.5c0.2,0.1,0.5,0.2,0.7,0.3c0.9,0.2,1.8-0.2,2.4-1c0.7-0.8,1.2-1.8,1.5-2.8
			c0.3-1,0.5-1.7,0.6-2.1c0.1-0.3,0.1-0.6,0.1-0.9c0-0.1-0.1-0.2-0.2-0.3c0,0,0,0-0.1,0c-0.1,0-0.3,0.2-0.5,0.6
			c-0.9,1.3-1.3,2-1.4,2c-0.4,0.5-1.2,0.5-2.5-0.1c-0.7-0.2-1.4-0.3-2.1-0.2c-1.1,0.1-2.2,0.3-3.2,0.7c-1.1,0.4-2.2,0.9-3.2,1.6
			c-0.9,0.7-1.8,1.5-2.6,2.3c-0.6,0.6-1.2,1.3-1.7,2c-0.1,0.2-0.3,0.3-0.4,0.5c-0.5,0.6-0.9,1.2-1.3,1.8c-0.4,0.6-0.7,1.2-0.9,1.9
			c-0.1,0.3-0.1,0.5-0.2,0.8c0.2,0,1.6-0.3,4.2-0.8c1.4-0.4,2.9-0.6,4.4-0.8c0.2,0,0.5,0,0.6,0.2c0,0.1,0,0.2,0,0.3
			c-0.2,0.6-0.5,1.1-1,1.4c-0.8,0.4-1.6,0.8-2.4,1c-0.3,0.1-0.9,0.4-1.9,0.7l-0.8,0.3c-1.5,0.6-2.5,1-2.8,1.2
			c-0.9,0.4-1.8,0.9-2.6,1.5c-0.9,0.8-1.8,1.6-2.6,2.6c-0.6,0.8-1.5,1.9-2.5,3.4c-1.9,2.7-3.1,4.4-3.7,5.1c-0.6,0.8-1.3,1.5-2,2.2
			c-0.7,0.8-1.5,1.6-2.3,2.4c-0.4,0.4-1.5,1.4-3.4,2.9l-3,2.1L95,71c-0.2,0.1-0.3,0.3-0.5,0.4c-0.2,0.2-0.3,0.4-0.2,0.6
			c0.4,0.1,0.8,0.1,1.2-0.2c0.6-0.3,1.5-0.7,2.7-1.3c0.8-0.4,1.6-0.8,2.3-1.2c3.1-2.1,5.8-4.6,8-7.5l4.1-5c1.1-1.6,2.6-2.9,4.3-3.8
			c0.3-0.1,1.1-0.4,2.4-0.9l2.1-0.8c0.6-0.2,1.2-0.5,1.8-0.8c0.9-0.5,1.6-1.2,2.3-1.9c0.9-1,1.8-2.1,2.5-3.3
			c0.6-0.8,1.1-1.7,1.6-2.6c0.4-0.6,0.6-1.3,0.7-2C130.3,40.1,129.9,39.8,129,39.8z"/>
		<path class="st0" d="M121.7,18.3c0.4,0.3,1,0.7,1.8,1.3c0.8,0.6,1.3,0.9,1.5,0.9c0.4,0,1-0.7,1.8-2.1c0.7-1,1.1-2.1,1.2-3.2
			c-0.3-0.9-0.8-1.7-1.6-2.3c-1-1-1.7-1.4-2.3-1.2c-0.3,0-0.8,0.9-1.7,2.6c-0.6,1-1.1,2.2-1.3,3.4C121.1,17.8,121.3,18,121.7,18.3z"
			/>
		<path class="st0" d="M139.7,62.1c-0.2,0-0.6,0.6-1.2,1.7c-0.4,0.8-0.9,1.5-1.3,2.3c-0.4-0.7-0.9-1.3-1.5-1.8c-0.4-0.5-1-0.8-1.6-1
			c-0.2,0-0.7,0.9-1.6,2.7c-0.6,1-1,2-1.4,3.1c0,0.1,0.5,0.6,1.5,1.5c0.5,0.5,1.1,0.9,1.7,1.3c0.7,0,1.6-1.3,2.7-3.8
			c0.6,0.5,1.2,1.1,1.8,1.7c0.5,0.6,0.9,0.8,1.2,0.8c0.3,0,0.8-0.6,1.7-1.8c0.7-0.9,1.1-2,1.2-3.1c-0.1-0.9-0.5-1.7-1.2-2.4
			C141.1,62.7,140.4,62.3,139.7,62.1z"/>
		<path class="st0" d="M137.1,70.3c-0.2,0-0.8,0.8-1.6,2.3c-0.5,0.8-1,1.7-1.3,2.7c0,0.3,0.2,0.6,0.5,0.7l0.9,0.8
			c0.4,0.4,0.7,0.7,1.1,1.1c0.1,0.2,0.4,0.4,0.6,0.5c0.3,0,0.8-0.6,1.5-1.7c0.6-0.9,1-1.8,1.1-2.9c0-0.8-0.3-1.6-0.9-2.2
			C138.5,70.9,137.9,70.5,137.1,70.3z"/>
	</g>
</g>
</svg>
