<?xml version="1.0" encoding="utf-8"?>
<!-- Generator: Adobe Illustrator 21.0.2, SVG Export Plug-In . SVG Version: 6.00 Build 0)  -->
<svg version="1.1" id="Layer_1" xmlns="http://www.w3.org/2000/svg" xmlns:xlink="http://www.w3.org/1999/xlink" x="0px" y="0px"
	 viewBox="0 0 512 512" style="enable-background:new 0 0 512 512;" xml:space="preserve">
<style type="text/css">
	.st0{fill:#F7F7F7;}
</style>
<path class="st0" d="M65.7,0h380.5C482.4,0,512,29.6,512,65.7v380.5c0,36.1-29.6,65.7-65.7,65.7H65.7C29.6,512,0,482.4,0,446.3V65.7
	C0,29.6,29.6,0,65.7,0z M373,56.9c-12.7,0-23,10.4-23,23.1v55.1c0,12.7,10.4,23.1,23,23.1h57.9c12.7,0,23-10.4,23-23.1V80
	c0-12.7-10.4-23.1-23-23.1C430.8,56.9,373,56.9,373,56.9z M454.1,216.5h-45c4.3,14,6.6,28.7,6.6,44c0,85.1-71.3,154.2-159.2,154.2
	c-87.9,0-159.2-69-159.2-154.2c0-15.3,2.3-30,6.6-44h-47v216.3c0,11.2,9.1,20.3,20.3,20.3h356.5c11.2,0,20.3-9.1,20.3-20.3V216.5z
	 M256.5,155.3c-56.8,0-102.8,44.6-102.8,99.6c0,55,46,99.6,102.8,99.6c56.8,0,102.8-44.6,102.8-99.6
	C359.3,199.9,313.3,155.3,256.5,155.3z"/>
</svg>
