<?xml version="1.0" encoding="utf-8"?>
<!-- Generator: Adobe Illustrator 21.0.2, SVG Export Plug-In . SVG Version: 6.00 Build 0)  -->
<svg version="1.1" id="Capa_1" xmlns="http://www.w3.org/2000/svg" xmlns:xlink="http://www.w3.org/1999/xlink" x="0px" y="0px"
	 viewBox="0 0 491.9 491.9" style="enable-background:new 0 0 491.9 491.9;" xml:space="preserve">
<style type="text/css">
	.st0{fill:#F7F7F7;}
</style>
<path class="st0" d="M245.9,0C110.1,0,0,110.1,0,245.9s110.1,245.9,245.9,245.9c54.5,0,104.9-17.8,145.7-47.8
	c-2.2-0.1-4.3-1.1-5.9-2.8l-40.3-45l-21.7,33.3L305.9,339l92.1,28.7l-39.7,17l40.3,45c1.9,2.1,2.5,4.8,2,7.4
	c55.6-45.1,91.2-114,91.2-191.1C491.9,110.1,381.8,0,245.9,0z M155.8,295.9h-12.5l-17.9-55.7l-3.9-16.1h-0.3l-3.8,16.1L100,295.9
	H87.3l-26.2-90.4h15.5l15.3,57.8l2.3,12.5l0.3,0.1l2.8-12.6l18.2-57.8h12.5l18.2,57.8L149,277h0.3l2.8-13.7l14.6-57.8h15.4
	L155.8,295.9z M285.3,295.9h-12.5l-17.9-55.7l-3.9-16.1h-0.3l-3.8,16.1l-17.5,55.7h-12.6l-26.2-90.4H206l15.3,57.8l2.3,12.5l0.3,0.1
	l2.8-12.6l18.2-57.8h12.5l18.2,57.8l2.9,13.7h0.3l2.8-13.7l14.6-57.8h15.4L285.3,295.9z M414.8,295.9h-12.5l-17.9-55.7l-3.9-16.1
	h-0.3l-3.8,16.1l-17.5,55.7h-12.6l-26.2-90.4h15.5l15.3,57.8l2.3,12.5l0.3,0.1l2.8-12.6l18.2-57.8h12.5l18.2,57.8l2.9,13.7h0.3
	l2.8-13.7l14.6-57.8H441L414.8,295.9z"/>
</svg>
