<?xml version="1.0" encoding="utf-8"?>
<!-- Generator: Adobe Illustrator 21.0.2, SVG Export Plug-In . SVG Version: 6.00 Build 0)  -->
<svg version="1.1" id="Layer_1" xmlns="http://www.w3.org/2000/svg" xmlns:xlink="http://www.w3.org/1999/xlink" x="0px" y="0px"
	 viewBox="0 0 512 512" style="enable-background:new 0 0 512 512;" xml:space="preserve">
<style type="text/css">
	.st0{fill:#C3C3C7;}
	.st1{fill:#F7F7F7;}
	.st2{fill:#DEDEE0;}
</style>
<path class="st0" d="M165.3,267.5l230.6-142c4.1-2.5,8.4,3.1,4.8,6.4L210.5,308.7c-6.7,6.2-11,14.6-12.2,23.6l-6.5,48
	c-0.9,6.4-9.9,7-11.6,0.8l-24.9-87.6C152.3,283.6,156.5,272.9,165.3,267.5z"/>
<path class="st1" d="M9,246.9l118,44l45.7,146.9c2.9,9.4,14.4,12.9,22.1,6.6l65.8-53.6c6.9-5.6,16.7-5.9,23.9-0.7L403,476.2
	c8.2,5.9,19.7,1.5,21.8-8.4l86.9-417.9c2.2-10.8-8.4-19.8-18.6-15.8L8.9,220.8C-3,225.5-2.9,242.4,9,246.9z"/>
<path class="st2" d="M165.3,267.5l230.6-142c4.1-2.5,8.4,3.1,4.8,6.4L210.5,308.7c-6.7,6.2-11,14.6-12.2,23.6l-6.5,48
	c-0.9,6.4-9.9,7-11.6,0.8l-24.9-87.6C152.3,283.6,156.5,272.9,165.3,267.5z"/>
</svg>
