<svg xmlns="http://www.w3.org/2000/svg" viewBox="0 0 555.17 94.5"><defs><style>.cls-1{fill:#004b90;}.cls-2{fill:#ff1a1a;}.cls-3{fill:#fff;}</style></defs><title>logo</title><g id="Layer_2" data-name="Layer 2"><g id="Layer_1-2" data-name="Layer 1"><polygon class="cls-1" points="24.33 42.69 27.5 17.75 52.87 17.75 55.21 0 12 0 6.58 42.69 24.33 42.69"/><polygon class="cls-1" points="59.91 17.75 86.5 17.75 83.33 42.69 101.08 42.69 106.5 0 62.25 0 59.91 17.75"/><polygon class="cls-1" points="45.08 76.75 20 76.75 23.44 49.67 5.69 49.67 0 94.5 42.73 94.5 45.08 76.75"/><polygon class="cls-1" points="82.44 49.67 79 76.75 52.11 76.75 49.77 94.5 94.5 94.5 100.19 49.67 82.44 49.67"/><polygon class="cls-2" points="56.61 42.69 75.83 42.69 78.04 25.25 58.91 25.25 56.61 42.69"/><polygon class="cls-2" points="49.57 42.69 51.88 25.25 34.04 25.25 31.83 42.69 49.57 42.69"/><polygon class="cls-2" points="48.65 49.67 30.94 49.67 28.46 69.25 46.06 69.25 48.65 49.67"/><polygon class="cls-2" points="55.69 49.67 53.1 69.25 72.46 69.25 74.94 49.67 55.69 49.67"/><polygon class="cls-1" points="122.58 0 135.08 66.67 152.25 66.67 165.08 30.83 167.42 66.67 185.92 66.67 217.58 0 193.75 0 180.58 41.5 178.58 0 161.92 0 146.58 40.83 145.25 0 122.58 0"/><polygon class="cls-1" points="220.25 0 210.42 66.67 231.58 66.67 241.92 0 220.25 0"/><polygon class="cls-1" points="248.92 0 238.75 66.67 260.08 66.67 263.58 33.33 278.75 66.67 299.42 66.67 308.92 0 288.58 0 283.84 38.96 269.75 0 248.92 0"/><path class="cls-1" d="M357.41,6l-2.3,14.83H343.69l-.86,5-6,34.85H323.2l4.49-33,.93-6.81H318.05L320.63,6h36.78m7-6H315.58l-4.67,26.83h10.83l-5.42,39.83h25.58l6.83-39.83h11.5L364.42,0Z"/><path class="cls-1" d="M406.74,6l-1.25,9.5H387.58L387.11,21l-.33,3.83-.57,6.52h16l-.7,6.5H384.26l-.63,5.29-.5,4.17L382.32,54h17.92l-.71,6.67H366.29L375,6h31.71m6.84-6H369.92L359.25,66.67h45.67l2-18.67H389.08l.5-4.17h17.33l2-18.5H392.75l.33-3.83h17.67L413.58,0Z"/><path class="cls-1" d="M526.68,6l-9,54.67H504.13L505.86,48l.93-6.81H487.52l-1,4.79-3,14.71H470.77L479.38,6h12.53L489.8,22.05l-.89,6.78h20.66l.78-5.09L513.07,6h13.61m7.07-6H507.92l-3.5,22.83h-8.67l3-22.83h-24.5l-10.5,66.67h24.67l4-19.5h7.5l-2.67,19.5h25.5L533.75,0Z"/><path class="cls-1" d="M447.58,6.5a92.61,92.61,0,0,1,13.15.76L458.86,18c-1.28-.12-2.72-.2-4.28-.2A30.09,30.09,0,0,0,442.36,20c-6.13,2.75-9.94,8.18-9.94,14.16,0,9.27,6.56,15.5,16.33,15.5,1.62,0,3.48-.08,5.29-.2l-1.63,11a61.91,61.91,0,0,1-12.16,1.34c-20.9,0-21.5-21.06-21.5-23.46,0-12.62,5.75-20.22,10.58-24.37,6.41-5.51,13.84-7.47,18.26-7.47m0-6c-12.67,0-34.83,11.17-34.83,37.83,0,13.33,7.67,29.46,27.5,29.46a69.84,69.84,0,0,0,17.5-2.46l3.33-22.5s-7.5.83-12.33.83-10.33-2.33-10.33-9.5c0-3.86,2.68-7,6.4-8.69,3.18-1.43,7.24-1.65,9.77-1.65A33.14,33.14,0,0,1,463.75,25l3.83-22.17S463.75.5,447.58.5Z"/><polygon class="cls-2" points="522.75 75 134.75 75 129.75 94.5 517.75 94.5 522.75 75"/><path class="cls-3" d="M144.2,79.44a5.24,5.24,0,0,1,1.64.23,3.13,3.13,0,0,1,1.14.64,2.53,2.53,0,0,1,.67,1,3.54,3.54,0,0,1,.22,1.26,4.75,4.75,0,0,1-.29,1.69,3.61,3.61,0,0,1-.87,1.33,4,4,0,0,1-1.43.88,5.65,5.65,0,0,1-2,.32h-1.55L141.24,91h-1.79l1.41-11.52Zm-.72,5.9a3,3,0,0,0,1.12-.2,2.19,2.19,0,0,0,.8-.54,2.25,2.25,0,0,0,.48-.83,3.36,3.36,0,0,0,.16-1.06,1.84,1.84,0,0,0-.5-1.35,2.06,2.06,0,0,0-1.53-.5h-1.54l-.55,4.49Z"/><path class="cls-3" d="M160.68,79.44,155,91h-1.63l-2.89-11.52h1.45a.55.55,0,0,1,.37.12.5.5,0,0,1,.17.3l1.73,7.64q.08.3.14.66t.11.74q.13-.38.27-.74t.29-.66l3.58-7.64a.69.69,0,0,1,.24-.29.68.68,0,0,1,.41-.13Z"/><path class="cls-3" d="M167,89.54a4.42,4.42,0,0,0,.89-.08,3.51,3.51,0,0,0,.68-.2A2.75,2.75,0,0,0,169,89l.36-.27.26-.2a.38.38,0,0,1,.22-.08.26.26,0,0,1,.14,0l.09.08.63.79A5.25,5.25,0,0,1,169,90.63a5.51,5.51,0,0,1-2.31.46,4.46,4.46,0,0,1-1.87-.38,4,4,0,0,1-1.39-1,4.59,4.59,0,0,1-.87-1.58,6.44,6.44,0,0,1-.3-2,7.66,7.66,0,0,1,.47-2.74A6.55,6.55,0,0,1,164,81.2a5.84,5.84,0,0,1,1.93-1.39,5.76,5.76,0,0,1,2.38-.5,5.29,5.29,0,0,1,1.13.11,4,4,0,0,1,.92.32,3.56,3.56,0,0,1,.75.49,4.63,4.63,0,0,1,.62.64l-.62.75a.77.77,0,0,1-.17.15.43.43,0,0,1-.24.06.36.36,0,0,1-.21-.07l-.23-.18-.3-.23a2.37,2.37,0,0,0-.41-.23,2.9,2.9,0,0,0-.56-.18,3.5,3.5,0,0,0-.76-.07,3.82,3.82,0,0,0-1.64.36,3.86,3.86,0,0,0-1.32,1,4.87,4.87,0,0,0-.88,1.59,6.45,6.45,0,0,0-.32,2.1,4.93,4.93,0,0,0,.22,1.51,3.39,3.39,0,0,0,.6,1.14,2.6,2.6,0,0,0,.92.71A2.72,2.72,0,0,0,167,89.54Z"/><path class="cls-3" d="M194.85,79.44,190.13,91H188.5l-1.42-8.38c0-.1,0-.2,0-.31s0-.23,0-.35l-.12.35c0,.11-.08.22-.12.31L183.27,91h-1.62l-1.89-11.52h1.42a.58.58,0,0,1,.38.12.45.45,0,0,1,.17.31l1.12,7.54c0,.16,0,.33,0,.51s0,.37,0,.57c.06-.2.12-.39.19-.58s.13-.35.2-.5l3.14-7.54a.77.77,0,0,1,.24-.29.64.64,0,0,1,.4-.13h.42a.55.55,0,0,1,.37.12.59.59,0,0,1,.19.3l1.29,7.54c0,.15.05.32.07.5s0,.36,0,.55l.17-.55q.08-.27.16-.5l3-7.54a.59.59,0,0,1,.24-.3.73.73,0,0,1,.42-.13Z"/><path class="cls-3" d="M198.65,91h-1.81l1.41-11.52h1.81Z"/><path class="cls-3" d="M213.42,79.44,212,91h-.91a.72.72,0,0,1-.35-.08.79.79,0,0,1-.26-.25l-4.7-8.29q0,.18,0,.35t0,.31l-1,8h-1.58l1.42-11.52h.94a.92.92,0,0,1,.35,0,.55.55,0,0,1,.22.25L210.8,88c0-.29,0-.55.07-.78l1-7.8Z"/><path class="cls-3" d="M226.65,84.41a7.75,7.75,0,0,1-.21,1.83,6.84,6.84,0,0,1-.59,1.59,6,6,0,0,1-.93,1.31,5.63,5.63,0,0,1-1.22,1,5.85,5.85,0,0,1-1.47.62,6.39,6.39,0,0,1-1.68.22h-4l1.42-11.52h4a5,5,0,0,1,1.95.37,4.18,4.18,0,0,1,1.47,1,4.61,4.61,0,0,1,.93,1.57A5.87,5.87,0,0,1,226.65,84.41Zm-1.85,0a5,5,0,0,0-.2-1.48,3.2,3.2,0,0,0-.59-1.12,2.59,2.59,0,0,0-.95-.71,3.1,3.1,0,0,0-1.26-.25h-2.21l-1.07,8.61h2.21a3.92,3.92,0,0,0,1.66-.35,3.62,3.62,0,0,0,1.29-1,4.7,4.7,0,0,0,.83-1.59A7,7,0,0,0,224.8,84.46Z"/><path class="cls-3" d="M240.6,84.41a7.87,7.87,0,0,1-.21,1.83,6.92,6.92,0,0,1-.6,1.61,6.14,6.14,0,0,1-.94,1.34,5.84,5.84,0,0,1-2.7,1.66,6,6,0,0,1-1.67.23,4.77,4.77,0,0,1-1.95-.38,4.25,4.25,0,0,1-1.47-1.06,4.69,4.69,0,0,1-.93-1.6,6.1,6.1,0,0,1-.32-2,7.77,7.77,0,0,1,.21-1.84,7.26,7.26,0,0,1,.6-1.62,6.11,6.11,0,0,1,.94-1.34,5.84,5.84,0,0,1,1.23-1,5.91,5.91,0,0,1,1.47-.65,6,6,0,0,1,1.67-.23,4.74,4.74,0,0,1,1.94.38,4.25,4.25,0,0,1,1.47,1.07,4.76,4.76,0,0,1,.93,1.62A6.14,6.14,0,0,1,240.6,84.41Zm-1.86,0a5,5,0,0,0-.21-1.49,3.34,3.34,0,0,0-.6-1.14,2.64,2.64,0,0,0-1-.73,3,3,0,0,0-1.27-.26,3.73,3.73,0,0,0-1.65.36,3.67,3.67,0,0,0-1.28,1,5,5,0,0,0-.83,1.62,7.06,7.06,0,0,0-.3,2.11,5,5,0,0,0,.21,1.49,3.38,3.38,0,0,0,.6,1.14,2.61,2.61,0,0,0,.95.73,3,3,0,0,0,1.27.26,3.66,3.66,0,0,0,2.94-1.4,4.81,4.81,0,0,0,.83-1.62A7.16,7.16,0,0,0,238.74,84.45Z"/><path class="cls-3" d="M258.89,79.44,254.17,91h-1.63l-1.42-8.38c0-.1,0-.2,0-.31s0-.23,0-.35l-.12.35c0,.11-.08.22-.12.31L247.31,91h-1.62L243.8,79.44h1.42a.58.58,0,0,1,.38.12.45.45,0,0,1,.17.31l1.12,7.54c0,.16,0,.33,0,.51s0,.37,0,.57c.06-.2.12-.39.19-.58s.13-.35.2-.5l3.14-7.54a.77.77,0,0,1,.24-.29.64.64,0,0,1,.4-.13h.42a.55.55,0,0,1,.37.12.59.59,0,0,1,.19.3l1.29,7.54c0,.15.05.32.07.5s0,.36,0,.55l.17-.55q.08-.27.16-.5l3-7.54a.59.59,0,0,1,.24-.3.73.73,0,0,1,.42-.13Z"/><path class="cls-3" d="M266.45,84.7h3.76L270,86.1h-3.75Z"/><path class="cls-3" d="M289.33,84.41a7.75,7.75,0,0,1-.21,1.83,6.84,6.84,0,0,1-.59,1.59,6,6,0,0,1-.93,1.31,5.63,5.63,0,0,1-1.22,1,5.85,5.85,0,0,1-1.47.62,6.39,6.39,0,0,1-1.68.22h-4l1.42-11.52h4a5,5,0,0,1,1.95.37,4.18,4.18,0,0,1,1.47,1,4.61,4.61,0,0,1,.93,1.57A5.87,5.87,0,0,1,289.33,84.41Zm-1.85,0a5,5,0,0,0-.2-1.48,3.2,3.2,0,0,0-.59-1.12,2.59,2.59,0,0,0-.95-.71,3.1,3.1,0,0,0-1.26-.25h-2.21l-1.07,8.61h2.21a3.92,3.92,0,0,0,1.66-.35,3.62,3.62,0,0,0,1.29-1,4.7,4.7,0,0,0,.83-1.59A7,7,0,0,0,287.48,84.46Z"/><path class="cls-3" d="M303.28,84.41a7.87,7.87,0,0,1-.21,1.83,6.92,6.92,0,0,1-.6,1.61,6.14,6.14,0,0,1-.94,1.34,5.84,5.84,0,0,1-2.7,1.66,6,6,0,0,1-1.67.23,4.77,4.77,0,0,1-1.95-.38,4.25,4.25,0,0,1-1.47-1.06,4.69,4.69,0,0,1-.93-1.6,6.1,6.1,0,0,1-.32-2,7.77,7.77,0,0,1,.21-1.84,7.26,7.26,0,0,1,.6-1.62,6.11,6.11,0,0,1,.94-1.34,5.84,5.84,0,0,1,1.23-1,5.91,5.91,0,0,1,1.47-.65,6,6,0,0,1,1.67-.23,4.74,4.74,0,0,1,1.94.38A4.25,4.25,0,0,1,302,80.76a4.76,4.76,0,0,1,.93,1.62A6.14,6.14,0,0,1,303.28,84.41Zm-1.86,0a5,5,0,0,0-.21-1.49,3.34,3.34,0,0,0-.6-1.14,2.64,2.64,0,0,0-1-.73,3,3,0,0,0-1.27-.26,3.73,3.73,0,0,0-1.65.36,3.67,3.67,0,0,0-1.28,1,5,5,0,0,0-.83,1.62,7.06,7.06,0,0,0-.3,2.11,5,5,0,0,0,.21,1.49,3.38,3.38,0,0,0,.6,1.14,2.61,2.61,0,0,0,.95.73,3,3,0,0,0,1.27.26,3.66,3.66,0,0,0,2.94-1.4,4.81,4.81,0,0,0,.83-1.62A7.16,7.16,0,0,0,301.42,84.45Z"/><path class="cls-3" d="M317.21,84.41a7.87,7.87,0,0,1-.21,1.83,6.92,6.92,0,0,1-.6,1.61,6.14,6.14,0,0,1-.94,1.34,5.84,5.84,0,0,1-2.7,1.66,6,6,0,0,1-1.67.23,4.77,4.77,0,0,1-1.95-.38,4.25,4.25,0,0,1-1.47-1.06,4.69,4.69,0,0,1-.93-1.6,6.1,6.1,0,0,1-.32-2,7.77,7.77,0,0,1,.21-1.84,7.26,7.26,0,0,1,.6-1.62,6.11,6.11,0,0,1,.94-1.34,5.84,5.84,0,0,1,1.23-1,5.91,5.91,0,0,1,1.47-.65,6,6,0,0,1,1.67-.23,4.74,4.74,0,0,1,1.94.38,4.25,4.25,0,0,1,1.47,1.07,4.76,4.76,0,0,1,.93,1.62A6.14,6.14,0,0,1,317.21,84.41Zm-1.86,0a5,5,0,0,0-.21-1.49,3.34,3.34,0,0,0-.6-1.14,2.64,2.64,0,0,0-1-.73,3,3,0,0,0-1.27-.26,3.73,3.73,0,0,0-1.65.36,3.67,3.67,0,0,0-1.28,1,5,5,0,0,0-.83,1.62,7.06,7.06,0,0,0-.3,2.11,5,5,0,0,0,.21,1.49,3.38,3.38,0,0,0,.6,1.14,2.61,2.61,0,0,0,.95.73,3,3,0,0,0,1.27.26,3.66,3.66,0,0,0,2.94-1.4,4.81,4.81,0,0,0,.83-1.62A7.16,7.16,0,0,0,315.35,84.45Z"/><path class="cls-3" d="M324.88,79.44a5.9,5.9,0,0,1,1.65.2,3.22,3.22,0,0,1,1.14.57,2.23,2.23,0,0,1,.66.88,3,3,0,0,1,.21,1.15,4.06,4.06,0,0,1-.2,1.28,3.56,3.56,0,0,1-1.46,1.9,4.23,4.23,0,0,1-1.2.53,1.45,1.45,0,0,1,.5.57L328.45,91h-1.61a.63.63,0,0,1-.64-.38l-1.91-3.92a.71.71,0,0,0-.24-.29.82.82,0,0,0-.43-.09h-.93L322.12,91h-1.79l1.41-11.52ZM324.17,85a3.16,3.16,0,0,0,1.14-.19,2.23,2.23,0,0,0,.81-.52,2.12,2.12,0,0,0,.48-.78,2.86,2.86,0,0,0,.16-1,1.56,1.56,0,0,0-.5-1.24,2.29,2.29,0,0,0-1.53-.44h-1.37l-.5,4.13Z"/><path class="cls-3" d="M337.72,84.7h3.76l-.18,1.4h-3.75Z"/><path class="cls-3" d="M357.27,81.38a1,1,0,0,1-.2.2.39.39,0,0,1-.23.07.5.5,0,0,1-.31-.13l-.4-.29a2.82,2.82,0,0,0-.56-.29,2.13,2.13,0,0,0-.8-.13,2.3,2.3,0,0,0-.84.14,1.85,1.85,0,0,0-.62.39,1.6,1.6,0,0,0-.38.58,2,2,0,0,0-.13.72,1.09,1.09,0,0,0,.19.65,1.72,1.72,0,0,0,.5.45,4.33,4.33,0,0,0,.7.34l.81.31a8.14,8.14,0,0,1,.81.36,3,3,0,0,1,.7.5,2.26,2.26,0,0,1,.5.72,2.5,2.5,0,0,1,.19,1,4.32,4.32,0,0,1-.29,1.58,3.88,3.88,0,0,1-.82,1.3,3.83,3.83,0,0,1-1.3.88,4.62,4.62,0,0,1-2.7.22,4.29,4.29,0,0,1-.89-.3,3.9,3.9,0,0,1-.77-.48,3.55,3.55,0,0,1-.62-.62l.63-.86a.77.77,0,0,1,.2-.16.48.48,0,0,1,.24-.07.54.54,0,0,1,.36.17q.18.17.45.38a3,3,0,0,0,.65.38,2.32,2.32,0,0,0,1,.17,2.52,2.52,0,0,0,.9-.15,1.88,1.88,0,0,0,.68-.43,1.86,1.86,0,0,0,.42-.67,2.48,2.48,0,0,0,.15-.88,1.18,1.18,0,0,0-.19-.69,1.68,1.68,0,0,0-.5-.46,3.51,3.51,0,0,0-.7-.33l-.8-.29a8.05,8.05,0,0,1-.8-.35,2.74,2.74,0,0,1-.7-.5,2.22,2.22,0,0,1-.5-.74,2.77,2.77,0,0,1-.19-1.08,3.75,3.75,0,0,1,.26-1.4,3.52,3.52,0,0,1,.76-1.18,3.74,3.74,0,0,1,1.21-.82,4.3,4.3,0,0,1,2.48-.22,3.81,3.81,0,0,1,.78.26,3.28,3.28,0,0,1,.67.41,3.41,3.41,0,0,1,.53.53Z"/><path class="cls-3" d="M370.87,79.44,369.45,91h-1.81l.63-5.15h-5.21L362.42,91h-1.81L362,79.44h1.82l-.62,5.07h5.21l.62-5.07Z"/><path class="cls-3" d="M378.36,89.51a2.63,2.63,0,0,0,1.1-.23,2.71,2.71,0,0,0,.88-.64,3.33,3.33,0,0,0,.62-1,4.83,4.83,0,0,0,.33-1.26l.86-7h1.8l-.85,7a6.16,6.16,0,0,1-.54,1.87,5.18,5.18,0,0,1-1,1.49,4.7,4.7,0,0,1-1.49,1,4.75,4.75,0,0,1-1.86.36,4.13,4.13,0,0,1-1.77-.36,3.31,3.31,0,0,1-1.24-1,3.77,3.77,0,0,1-.68-1.49,5.34,5.34,0,0,1-.07-1.87l.84-7H377l-.85,7a4.12,4.12,0,0,0,0,1.26,2.56,2.56,0,0,0,.38,1,1.89,1.89,0,0,0,.72.64A2.26,2.26,0,0,0,378.36,89.51Z"/><path class="cls-3" d="M395.44,80.94h-3.26l-1.23,10h-1.79l1.22-10h-3.28l.18-1.5h8.36Z"/><path class="cls-3" d="M406.2,80.94h-3.26L401.7,91h-1.79l1.22-10h-3.28l.18-1.5h8.36Z"/><path class="cls-3" d="M411.49,80.9l-.43,3.54h3.85l-.18,1.41h-3.84l-.45,3.64h4.84L415.09,91h-6.65l1.42-11.52h6.64l-.18,1.46Z"/><path class="cls-3" d="M423.53,79.44a5.9,5.9,0,0,1,1.65.2,3.22,3.22,0,0,1,1.14.57,2.23,2.23,0,0,1,.66.88,3,3,0,0,1,.21,1.15,4.06,4.06,0,0,1-.2,1.28,3.56,3.56,0,0,1-1.46,1.9,4.23,4.23,0,0,1-1.2.53,1.45,1.45,0,0,1,.5.57L427.1,91h-1.61a.63.63,0,0,1-.64-.38l-1.91-3.92a.71.71,0,0,0-.24-.29.82.82,0,0,0-.43-.09h-.93L420.76,91H419l1.41-11.52ZM422.82,85a3.16,3.16,0,0,0,1.14-.19,2.23,2.23,0,0,0,.81-.52,2.12,2.12,0,0,0,.48-.78,2.86,2.86,0,0,0,.16-1,1.56,1.56,0,0,0-.5-1.24,2.29,2.29,0,0,0-1.53-.44H422L421.5,85Z"/><path class="cls-3" d="M442.72,81.38a1,1,0,0,1-.2.2.39.39,0,0,1-.23.07.5.5,0,0,1-.31-.13l-.4-.29a2.82,2.82,0,0,0-.56-.29,2.13,2.13,0,0,0-.8-.13,2.3,2.3,0,0,0-.84.14,1.85,1.85,0,0,0-.62.39,1.6,1.6,0,0,0-.38.58,2,2,0,0,0-.13.72,1.09,1.09,0,0,0,.19.65,1.72,1.72,0,0,0,.5.45,4.33,4.33,0,0,0,.7.34l.81.31a8.14,8.14,0,0,1,.81.36,3,3,0,0,1,.7.5,2.26,2.26,0,0,1,.5.72,2.5,2.5,0,0,1,.19,1,4.32,4.32,0,0,1-.29,1.58,3.88,3.88,0,0,1-.82,1.3,3.83,3.83,0,0,1-1.3.88,4.62,4.62,0,0,1-2.7.22,4.29,4.29,0,0,1-.89-.3,3.9,3.9,0,0,1-.77-.48,3.55,3.55,0,0,1-.62-.62l.63-.86a.77.77,0,0,1,.2-.16.48.48,0,0,1,.24-.07.54.54,0,0,1,.36.17q.18.17.45.38a3,3,0,0,0,.65.38,2.32,2.32,0,0,0,1,.17,2.52,2.52,0,0,0,.9-.15,1.88,1.88,0,0,0,.68-.43,1.86,1.86,0,0,0,.42-.67,2.48,2.48,0,0,0,.15-.88,1.18,1.18,0,0,0-.19-.69,1.68,1.68,0,0,0-.5-.46,3.51,3.51,0,0,0-.7-.33l-.8-.29a8.05,8.05,0,0,1-.8-.35,2.74,2.74,0,0,1-.7-.5,2.22,2.22,0,0,1-.5-.74,2.77,2.77,0,0,1-.19-1.08,3.75,3.75,0,0,1,.26-1.4,3.52,3.52,0,0,1,.76-1.18,3.74,3.74,0,0,1,1.21-.82,4.3,4.3,0,0,1,2.48-.22,3.81,3.81,0,0,1,.78.26,3.28,3.28,0,0,1,.67.41,3.41,3.41,0,0,1,.53.53Z"/><path class="cls-3" d="M450.73,86.42,450.16,91h-1.8l.57-4.54-3-7h1.6a.54.54,0,0,1,.36.12.7.7,0,0,1,.2.3l1.69,4.26a7.5,7.5,0,0,1,.27,1q.11-.24.24-.48l.29-.52,2.75-4.26a1.11,1.11,0,0,1,.25-.29.59.59,0,0,1,.39-.13h1.5Z"/><path class="cls-3" d="M463.7,81.38a1,1,0,0,1-.2.2.39.39,0,0,1-.23.07.5.5,0,0,1-.31-.13l-.4-.29a2.82,2.82,0,0,0-.56-.29,2.13,2.13,0,0,0-.8-.13,2.3,2.3,0,0,0-.84.14,1.85,1.85,0,0,0-.62.39,1.6,1.6,0,0,0-.38.58,2,2,0,0,0-.13.72,1.09,1.09,0,0,0,.19.65,1.72,1.72,0,0,0,.5.45,4.33,4.33,0,0,0,.7.34l.81.31a8.14,8.14,0,0,1,.81.36,3,3,0,0,1,.7.5,2.26,2.26,0,0,1,.5.72,2.5,2.5,0,0,1,.19,1,4.32,4.32,0,0,1-.29,1.58,3.88,3.88,0,0,1-.82,1.3,3.83,3.83,0,0,1-1.3.88,4.62,4.62,0,0,1-2.7.22,4.29,4.29,0,0,1-.89-.3,3.9,3.9,0,0,1-.77-.48,3.55,3.55,0,0,1-.62-.62l.63-.86a.77.77,0,0,1,.2-.16.48.48,0,0,1,.24-.07.54.54,0,0,1,.36.17q.18.17.45.38a3,3,0,0,0,.65.38,2.32,2.32,0,0,0,1,.17,2.52,2.52,0,0,0,.9-.15,1.88,1.88,0,0,0,.68-.43,1.86,1.86,0,0,0,.42-.67,2.48,2.48,0,0,0,.15-.88,1.18,1.18,0,0,0-.19-.69,1.68,1.68,0,0,0-.5-.46,3.51,3.51,0,0,0-.7-.33l-.8-.29a8.05,8.05,0,0,1-.8-.35,2.74,2.74,0,0,1-.7-.5,2.22,2.22,0,0,1-.5-.74,2.77,2.77,0,0,1-.19-1.08,3.75,3.75,0,0,1,.26-1.4,3.52,3.52,0,0,1,.76-1.18,3.74,3.74,0,0,1,1.21-.82,4.3,4.3,0,0,1,2.48-.22,3.81,3.81,0,0,1,.78.26,3.28,3.28,0,0,1,.67.41,3.41,3.41,0,0,1,.53.53Z"/><path class="cls-3" d="M475.56,80.94h-3.26l-1.23,10h-1.79l1.22-10h-3.28l.18-1.5h8.36Z"/><path class="cls-3" d="M480.85,80.9l-.43,3.54h3.85l-.18,1.41h-3.84l-.45,3.64h4.84L484.45,91H477.8l1.42-11.52h6.64l-.18,1.46Z"/><path class="cls-3" d="M501.1,79.44,499.68,91h-1.58l1-8q0-.18.07-.42c0-.15.06-.31.1-.46L495,89a.76.76,0,0,1-.69.4h-.25a.68.68,0,0,1-.37-.1.57.57,0,0,1-.23-.3l-2.56-6.89c0,.15,0,.3,0,.45s0,.28,0,.4l-1,8h-1.58l1.42-11.52h1.54l.14,0,.12.09.12.15,2.58,6.88q.12.38.21.77l.18-.39c.06-.13.13-.25.21-.38l4.25-6.88a1,1,0,0,1,.29-.24.9.9,0,0,1,.36-.06Z"/><path class="cls-3" d="M511,81.38a1,1,0,0,1-.2.2.39.39,0,0,1-.23.07.5.5,0,0,1-.31-.13l-.4-.29a2.82,2.82,0,0,0-.56-.29,2.13,2.13,0,0,0-.8-.13,2.3,2.3,0,0,0-.84.14,1.85,1.85,0,0,0-.62.39,1.6,1.6,0,0,0-.38.58,2,2,0,0,0-.13.72,1.09,1.09,0,0,0,.19.65,1.72,1.72,0,0,0,.5.45,4.33,4.33,0,0,0,.7.34l.81.31a8.14,8.14,0,0,1,.81.36,3,3,0,0,1,.7.5,2.26,2.26,0,0,1,.5.72,2.5,2.5,0,0,1,.19,1,4.32,4.32,0,0,1-.29,1.58,3.88,3.88,0,0,1-.82,1.3,3.83,3.83,0,0,1-1.3.88,4.62,4.62,0,0,1-2.7.22,4.29,4.29,0,0,1-.89-.3,3.9,3.9,0,0,1-.77-.48,3.55,3.55,0,0,1-.62-.62l.63-.86a.77.77,0,0,1,.2-.16.48.48,0,0,1,.24-.07.54.54,0,0,1,.36.17q.18.17.45.38a3,3,0,0,0,.65.38,2.32,2.32,0,0,0,1,.17,2.52,2.52,0,0,0,.9-.15,1.88,1.88,0,0,0,.68-.43,1.86,1.86,0,0,0,.42-.67,2.48,2.48,0,0,0,.15-.88,1.18,1.18,0,0,0-.19-.69,1.68,1.68,0,0,0-.5-.46,3.51,3.51,0,0,0-.7-.33l-.8-.29a8.05,8.05,0,0,1-.8-.35,2.74,2.74,0,0,1-.7-.5,2.22,2.22,0,0,1-.5-.74,2.77,2.77,0,0,1-.19-1.08,3.75,3.75,0,0,1,.26-1.4,3.52,3.52,0,0,1,.76-1.18,3.74,3.74,0,0,1,1.21-.82,4.3,4.3,0,0,1,2.48-.22,3.81,3.81,0,0,1,.78.26,3.28,3.28,0,0,1,.67.41,3.41,3.41,0,0,1,.53.53Z"/><path class="cls-1" d="M551,14.49h-1.39a.61.61,0,0,1-.57-.31l-1.74-2.65a.61.61,0,0,0-.22-.21.75.75,0,0,0-.35-.06H546v3.24H544.5V6.2H547a5.25,5.25,0,0,1,1.45.17,2.77,2.77,0,0,1,1,.49,1.92,1.92,0,0,1,.57.75,2.63,2.63,0,0,1,.06,1.76,2.27,2.27,0,0,1-.36.68,2.38,2.38,0,0,1-.57.53,2.87,2.87,0,0,1-.78.36,1.52,1.52,0,0,1,.28.2,1.45,1.45,0,0,1,.23.28Zm-4-4.35a2.38,2.38,0,0,0,.76-.11,1.46,1.46,0,0,0,.53-.3,1.21,1.21,0,0,0,.31-.46,1.56,1.56,0,0,0,.1-.58,1.18,1.18,0,0,0-.42-1A2,2,0,0,0,547,7.39h-1v2.75Z"/><path class="cls-1" d="M547.43,4.86a5.74,5.74,0,1,1-5.74,5.74,5.74,5.74,0,0,1,5.74-5.74m0-2a7.74,7.74,0,1,0,7.74,7.74,7.74,7.74,0,0,0-7.74-7.74Z"/></g></g></svg>